HIERARCHY
ROOT joint_Root
{
	OFFSET 0.0 0.0 0.0
	CHANNELS 6 Xposition Yposition Zposition Zrotation Xrotation Yrotation 
	JOINT Hips
	{
		OFFSET -0.726466 93.3139 -2.00062
		CHANNELS 6 Xposition Yposition Zposition Zrotation Xrotation Yrotation 
		JOINT Spine
		{
			OFFSET 15.7357 0.0 0.0
			CHANNELS 6 Xposition Yposition Zposition Zrotation Xrotation Yrotation 
			JOINT Chest
			{
				OFFSET 8.98455 -0.406207 0.0
				CHANNELS 6 Xposition Yposition Zposition Zrotation Xrotation Yrotation 
				JOINT Neck
				{
					OFFSET 16.3773 0.0 0.0
					CHANNELS 6 Xposition Yposition Zposition Zrotation Xrotation Yrotation 
					JOINT Head
					{
						OFFSET 6.45672 0.0 0.0
						CHANNELS 6 Xposition Yposition Zposition Zrotation Xrotation Yrotation 
						End Site
						{
							OFFSET 0.0 0.0 0.0
						}
					}
				}
				JOINT Shoulder_L
				{
					OFFSET 12.9942 -0.242716 4.98039
					CHANNELS 6 Xposition Yposition Zposition Zrotation Xrotation Yrotation 
					JOINT UpperArm_L
					{
						OFFSET 5.34809 0.0 0.0
						CHANNELS 6 Xposition Yposition Zposition Zrotation Xrotation Yrotation 
						JOINT LowerArm_L
						{
							OFFSET 24.3286 1.87007e-05 0.0
							CHANNELS 6 Xposition Yposition Zposition Zrotation Xrotation Yrotation 
							JOINT Hand_L
							{
								OFFSET 22.2916 0.0 0.0
								CHANNELS 6 Xposition Yposition Zposition Zrotation Xrotation Yrotation 
								End Site
								{
									OFFSET 0.0 0.0 0.0
								}
							}
						}
					}
				}
				JOINT Shoulder_R
				{
					OFFSET 12.9945 -0.242716 -4.98039
					CHANNELS 6 Xposition Yposition Zposition Zrotation Xrotation Yrotation 
					JOINT UpperArm_R
					{
						OFFSET -5.34813 0.0 0.0
						CHANNELS 6 Xposition Yposition Zposition Zrotation Xrotation Yrotation 
						JOINT LowerArm_R
						{
							OFFSET -24.3289 0.000322201 0.0
							CHANNELS 6 Xposition Yposition Zposition Zrotation Xrotation Yrotation 
							JOINT Hand_R
							{
								OFFSET -22.2915 -0.000108084 0.0
								CHANNELS 6 Xposition Yposition Zposition Zrotation Xrotation Yrotation 
								End Site
								{
									OFFSET 0.0 0.0 0.0
								}
							}
						}
					}
				}
			}
		}
		JOINT UpperLeg_L
		{
			OFFSET -2.19248 -6.46944 0.0
			CHANNELS 6 Xposition Yposition Zposition Zrotation Xrotation Yrotation 
			JOINT LowerLeg_L
			{
				OFFSET 39.0811 0.0 -1.23785e-05
				CHANNELS 6 Xposition Yposition Zposition Zrotation Xrotation Yrotation 
				JOINT Foot_L
				{
					OFFSET 40.9854 0.0 -1.26872e-05
					CHANNELS 6 Xposition Yposition Zposition Zrotation Xrotation Yrotation 
					JOINT Toes_L
					{
						OFFSET 11.7543 0.0 0.0
						CHANNELS 6 Xposition Yposition Zposition Zrotation Xrotation Yrotation 
						End Site
						{
							OFFSET 0.0 0.0 0.0
						}
					}
				}
			}
		}
		JOINT UpperLeg_R
		{
			OFFSET -2.19251 6.46944 0.0
			CHANNELS 6 Xposition Yposition Zposition Zrotation Xrotation Yrotation 
			JOINT LowerLeg_R
			{
				OFFSET -39.0811 -0.00228153 -0.0401928
				CHANNELS 6 Xposition Yposition Zposition Zrotation Xrotation Yrotation 
				JOINT Foot_R
				{
					OFFSET -40.9854 0.0 0.0
					CHANNELS 6 Xposition Yposition Zposition Zrotation Xrotation Yrotation 
					JOINT Toes_R
					{
						OFFSET -11.7543 0.0 0.0
						CHANNELS 6 Xposition Yposition Zposition Zrotation Xrotation Yrotation 
						End Site
						{
							OFFSET 0.0 0.0 0.0
						}
					}
				}
			}
		}
	}
}
MOTION
Frames:	5
Frame Time:	0.0333333
0.000000 0.000000 0.000000 0.000000 0.000000 -0.000000 -0.949911 92.629000 -1.009050 88.020200 -4.219750 2.088880 15.735700 0.000005 -0.000001 68.599100 85.799800 -66.717100 8.984550 -0.406207 -0.000000 0.111440 -3.190100 3.765500 16.377300 -0.000001 -0.000001 0.806332 0.867328 -5.287200 6.456720 -0.000001 -0.000000 1.775630 0.055866 -0.635918 12.994200 -0.242716 4.980390 -84.996600 -9.214760 -61.333600 5.348090 -0.000007 -0.000001 -64.496400 -58.211200 -108.878000 24.328600 0.000019 0.000005 1.116040 2.834800 -21.504600 22.291600 -0.000001 0.000005 22.401900 5.419450 -3.557330 12.994500 -0.242716 -4.980390 89.056200 2.852980 -71.686800 -5.348130 -0.000001 -0.000004 -65.738100 27.553800 -12.352100 -24.328900 0.000322 -0.000009 2.418370 5.897970 -22.351600 -22.291500 -0.000108 -0.000004 10.979700 5.399450 -2.919690 -2.192480 -6.469440 -0.000000 -175.487000 -9.975830 -3.357320 39.081100 -0.000007 -0.000012 -0.096344 0.256450 20.590400 40.985400 -0.000006 -0.000013 -0.838731 1.562800 -65.028200 11.754300 -0.000000 0.000003 -0.000052 -0.000590 -16.600400 -2.192510 6.469440 -0.000001 -179.222000 13.143500 178.367000 -39.081100 -0.002282 -0.040193 -0.005253 0.027268 17.464000 -40.985400 0.000008 0.000006 4.696140 8.651180 -64.508000 -11.754300 -0.000006 -0.000006 -0.007873 -0.086994 -20.115400
0.000000 0.000000 0.000000 0.000000 0.000000 -0.000000 -0.960799 92.630300 -0.988471 88.029500 -4.294730 2.041360 15.735700 0.000005 -0.000001 67.911800 85.760500 -65.906200 8.984550 -0.406207 -0.000000 0.153163 -3.320710 4.013840 16.377300 -0.000001 -0.000001 0.804738 0.865206 -5.365980 6.456720 -0.000001 -0.000000 1.767140 0.077007 -0.566488 12.994200 -0.242716 4.980390 -85.046100 -9.111000 -61.304300 5.348090 -0.000007 -0.000001 -72.114900 -56.650800 -113.480000 24.328600 0.000019 0.000005 1.292680 4.832290 -15.009800 22.291600 -0.000001 0.000005 20.923100 5.228130 2.003490 12.994500 -0.242716 -4.980390 89.088600 2.758480 -71.709100 -5.348130 -0.000001 -0.000004 -65.704000 27.599300 -12.448800 -24.328900 0.000322 -0.000009 2.451770 6.159400 -21.763800 -22.291500 -0.000108 -0.000004 10.935100 5.398780 -2.897760 -2.192480 -6.469440 -0.000000 -175.488000 -10.093500 -3.372690 39.081100 -0.000007 -0.000012 -0.096725 0.257877 20.560100 40.985400 -0.000006 -0.000013 -0.841676 1.593780 -65.022300 11.754300 -0.000000 0.000003 -0.000044 -0.000511 -16.597400 -2.192510 6.469440 -0.000001 -179.194000 12.987000 178.312000 -39.081100 -0.002282 -0.040193 -0.003629 0.022094 17.472300 -40.985400 0.000008 0.000006 4.745170 8.588990 -64.518200 -11.754300 -0.000006 -0.000006 -0.008072 -0.088615 -20.181700
0.000000 0.000000 0.000000 0.000000 0.000000 -0.000000 -0.963815 92.628100 -0.966136 88.047200 -4.230590 1.994800 15.735700 0.000005 -0.000001 67.334800 85.727800 -65.253600 8.984550 -0.406207 -0.000000 0.185435 -3.429240 4.166130 16.377300 -0.000001 -0.000001 0.762125 0.864279 -5.403670 6.456720 -0.000001 -0.000000 1.758990 0.221410 -0.554294 12.994200 -0.242716 4.980390 -84.989200 -9.164430 -61.166700 5.348090 -0.000007 -0.000001 -83.437300 -53.227000 -120.094000 24.328600 0.000019 0.000005 1.830780 7.587070 -13.608700 22.291600 -0.000001 0.000005 21.050500 4.917380 9.010680 12.994500 -0.242716 -4.980390 89.104000 2.709950 -71.696300 -5.348130 -0.000001 -0.000004 -65.788300 27.394700 -12.294500 -24.328900 0.000322 -0.000009 2.485400 6.470820 -21.072700 -22.291500 -0.000108 -0.000004 10.956400 5.395500 -2.791520 -2.192480 -6.469440 -0.000000 -175.501000 -10.149100 -3.401260 39.081100 -0.000007 -0.000012 -0.096865 0.258416 20.548100 40.985400 -0.000006 -0.000013 -0.822241 1.711100 -65.030700 11.754300 -0.000000 0.000003 -0.000047 -0.000538 -16.598500 -2.192510 6.469440 -0.000001 -179.205000 12.989800 178.280000 -39.081100 -0.002282 -0.040193 -0.005115 0.026813 17.473400 -40.985400 0.000008 0.000006 4.659240 8.525590 -64.519400 -11.754300 -0.000006 -0.000006 -0.007693 -0.085506 -20.054700
0.000000 0.000000 0.000000 0.000000 0.000000 -0.000000 -0.982635 92.622100 -0.916163 88.072000 -4.040100 1.995910 15.735700 0.000005 -0.000001 67.217200 85.712400 -65.129200 8.984550 -0.406207 -0.000000 0.207999 -3.457420 4.180510 16.377300 -0.000001 -0.000001 0.758155 0.816824 -5.424220 6.456720 -0.000001 -0.000000 1.750920 0.250381 -0.445278 12.994200 -0.242716 4.980390 -84.855600 -9.366040 -61.048300 5.348090 -0.000007 -0.000001 -89.817100 -50.743400 -122.980000 24.328600 0.000019 0.000005 1.393410 5.468250 -14.325400 22.291600 -0.000001 0.000005 22.955900 4.793570 11.443000 12.994500 -0.242716 -4.980390 89.121500 2.658470 -71.706100 -5.348130 -0.000001 -0.000004 -66.045200 27.005800 -11.798700 -24.328900 0.000322 -0.000009 2.464580 6.664850 -20.355600 -22.291500 -0.000108 -0.000004 10.885400 5.389650 -2.604090 -2.192480 -6.469440 -0.000000 -175.499000 -10.151300 -3.393510 39.081100 -0.000007 -0.000012 -0.097560 0.260205 20.552900 40.985400 -0.000006 -0.000013 -0.811064 1.857350 -65.048800 11.754300 -0.000000 0.000003 -0.000051 -0.000577 -16.599900 -2.192510 6.469440 -0.000001 -179.238000 13.070500 178.333000 -39.081100 -0.002282 -0.040193 -0.006510 0.031238 17.476700 -40.985400 0.000008 0.000006 4.591220 8.446290 -64.563900 -11.754300 -0.000006 -0.000006 -0.007919 -0.087372 -20.130800
0.000000 0.000000 0.000000 0.000000 0.000000 -0.000000 -1.026370 92.620200 -0.865617 88.071600 -3.761230 1.958090 15.735700 0.000005 -0.000001 67.610600 85.742500 -65.581000 8.984550 -0.406207 -0.000000 0.171449 -3.376950 4.062570 16.377300 -0.000001 -0.000001 0.766375 0.702389 -5.348050 6.456720 -0.000001 -0.000000 1.771920 0.055748 -0.325111 12.994200 -0.242716 4.980390 -84.691200 -9.645960 -60.988900 5.348090 -0.000007 -0.000001 -91.897500 -49.583700 -123.480000 24.328600 0.000019 0.000005 0.048401 0.168579 -16.464300 22.291600 -0.000001 0.000005 24.407800 4.934390 8.688910 12.994500 -0.242716 -4.980390 89.144700 2.594250 -71.746500 -5.348130 -0.000001 -0.000004 -66.320000 26.832900 -11.119600 -24.328900 0.000322 -0.000009 2.440150 6.882720 -19.583500 -22.291500 -0.000108 -0.000004 10.599300 5.388190 -2.557470 -2.192480 -6.469440 -0.000000 -175.481000 -9.929850 -3.434810 39.081100 -0.000007 -0.000012 -0.097192 0.259293 20.547800 40.985400 -0.000006 -0.000013 -0.828765 1.926910 -65.055600 11.754300 -0.000000 0.000003 -0.000047 -0.000533 -16.598300 -2.192510 6.469440 -0.000001 -179.206000 13.231700 178.380000 -39.081100 -0.002282 -0.040193 -0.007322 0.033945 17.415300 -40.985400 0.000008 0.000006 4.561030 8.314380 -64.583200 -11.754300 -0.000006 -0.000006 -0.007970 -0.087785 -20.147700
